Poster: 
http://www.shotpix.com/images/61661234096109646887.jpg

Info:


Format : MPEG-4
Format profile : Base Media
Codec ID : isom
File size : 680 MiB
Duration : 2h 34mn
Overall bit rate mode : Variable
Overall bit rate : 616 Kbps
Encoded date : UTC 2013-01-02 09:55:48
Tagged date : UTC 2013-01-02 09:55:48

Video
ID : 1
Format : AVC
Format/Info : Advanced Video Codec
Format profile : High@L2.1
Format settings, CABAC : Yes
Format settings, ReFrames : 4 frames
Codec ID : avc1
Codec ID/Info : Advanced Video Coding
Duration : 2h 34mn
Bit rate : 519 Kbps
Maximum bit rate : 1 711 Kbps
Width : 608 pixels
Height : 256 pixels
Display aspect ratio : 2.40:1
Frame rate mode : Constant
Frame rate : 18.000 fps
Color space : YUV
Chroma subsampling : 4:2:0
Bit depth : 8 bits
Scan type : Progressive
Bits/(Pixel*Frame) : 0.185
Stream size : 573 MiB (84%)
Writing library : x264 core 129 r2230 1cffe9f
Encoded date : UTC 2013-01-02 09:41:06
Tagged date : UTC 2013-01-02 09:56:05

Audio
ID : 2
Format : AAC
Format/Info : Advanced Audio Codec
Format profile : LC
Codec ID : 40
Duration : 2h 34mn
Bit rate mode : Variable
Bit rate : 96.0 Kbps
Maximum bit rate : 133 Kbps
Channel(s) : 2 channels
Channel positions : Front: L R
Sampling rate : 44.1 KHz
Compression mode : Lossy
Delay relative to video : 111ms
Stream size : 104 MiB (15%)
Encoded date : UTC 2013-01-02 09:56:01
Tagged date : UTC 2013-01-02 09:56:05


Screens: 
http://www.shotpix.com/images/44099053977517888557.png 
http://www.shotpix.com/images/39345103825534162370.png 
http://www.shotpix.com/images/14769401893985052861.png 
http://www.shotpix.com/images/50674074131171901860.png 
http://www.shotpix.com/images/62846200354617674902.png 
http://www.shotpix.com/images/98835462860905252151.png 
http://www.shotpix.com/images/85297762892085081387.png




